<?xml version="1.0" standalone="no"?><svg xmlns="http://www.w3.org/2000/svg" viewBox="0 0 1440 320"><path fill="#ffffff" fill-opacity="1" d="M0,256L34.3,261.3C68.6,267,137,277,206,266.7C274.3,256,343,224,411,218.7C480,213,549,235,617,218.7C685.7,203,754,149,823,160C891.4,171,960,245,1029,250.7C1097.1,256,1166,192,1234,165.3C1302.9,139,1371,149,1406,154.7L1440,160L1440,0L1405.7,0C1371.4,0,1303,0,1234,0C1165.7,0,1097,0,1029,0C960,0,891,0,823,0C754.3,0,686,0,617,0C548.6,0,480,0,411,0C342.9,0,274,0,206,0C137.1,0,69,0,34,0L0,0Z"></path></svg>